<svg enable-background="new 0 0 59 57" height="512" viewBox="0 0 59 57" width="512" xmlns="http://www.w3.org/2000/svg"><path d="m1 57c-.162 0-.324-.039-.472-.118-.325-.174-.528-.513-.528-.882v-14c0-.369.203-.708.528-.882.324-.175.719-.156 1.026.05l6 4c.279.186.446.498.446.832v6c0 .334-.167.646-.445.832l-6 4c-.168.111-.361.168-.555.168zm1-13.131v10.263l4-2.667v-4.93zm5 8.131h.01z"/><path d="m44 41c-.091 0-.184-.013-.275-.039l-42-12c-.262-.075-.482-.253-.609-.495-.127-.241-.151-.524-.064-.783l6-18c.168-.504.703-.788 1.215-.647l47 13c.307.085.555.311.668.608.113.298.078.631-.095.899l-11 17c-.188.29-.507.457-.84.457zm-40.721-13.675 40.284 11.51 9.858-15.234-44.773-12.384z"/><path d="m8.883 21c-.104 0-.211-.017-.316-.052-.524-.175-.807-.741-.632-1.265l1.711-5.133c.168-.505.704-.788 1.215-.647l8.406 2.325c.532.147.844.698.697 1.23s-.698.843-1.23.697l-7.491-2.072-1.411 4.232c-.14.42-.53.685-.949.685z"/><path d="m27 43c-.081 0-.163-.01-.243-.03l-8-2c-.358-.09-.638-.369-.728-.728l-1.923-7.692c-.086-.347.018-.713.275-.961s.626-.341.97-.243l16.767 4.791c.369.105.645.413.71.791s-.091.76-.403.984l-6.843 4.902c-.171.122-.375.186-.582.186zm-7.175-3.825 6.969 1.742 4.784-3.427-13.111-3.746z"/><path d="m7 52c-.552 0-1-.448-1-1v-4c0-.552.448-1 1-1 5.906 0 11.112-3.05 13.203-6.064.237-.341.662-.499 1.064-.4l4.167 1.042c.288.072.529.268.658.535s.133.578.01.848c-2.679 5.911-10.534 10.039-19.102 10.039zm1-4.026v2.007c7.515-.297 13.307-3.915 15.705-7.773l-2.278-.569c-2.468 3.072-7.6 6.026-13.427 6.335z"/><path d="m53 40c-.114 0-.229-.02-.342-.06l-6.762-2.458c-.286-.104-.509-.333-.606-.622s-.057-.606.108-.862l5.743-8.876c.257-.397.759-.561 1.201-.389l6.019 2.334c.27.104.481.32.579.592.098.271.074.573-.066.826l-5 9c-.181.326-.52.515-.874.515zm-5.241-3.969 4.781 1.738 4.028-7.251-4.19-1.625z"/><path d="m6.001 17c-.065 0-.131-.006-.197-.02l-5-1c-.468-.093-.804-.503-.804-.98v-14c0-.552.448-1 1-1s1 .448 1 1v13.18l4.196.839c.542.108.893.635.784 1.177-.094.475-.512.804-.979.804z"/></svg>