<svg height="512" viewBox="0 0 64 64" width="512" xmlns="http://www.w3.org/2000/svg"><g id="Car-5" data-name="Car"><path d="m59 27h-7.485l-9.1-12.744a3.008 3.008 0 0 0 -2.444-1.256h-26.971a5.006 5.006 0 0 0 -5 5v2h-4a2 2 0 0 0 -2 2v10a2 2 0 0 0 2 2h4v8a3 3 0 0 0 3 3h3.08a6.991 6.991 0 0 0 13.84 0h14.16a6.991 6.991 0 0 0 13.84 0h3.08a3 3 0 0 0 3-3v-12a3 3 0 0 0 -3-3zm-23-8h7.342l5.715 8h-13.057zm-2 8h-20v-8h20zm-30 5v-3h1v-2h-1v-2h1v-2h-1v-1h4v3h-1v2h1v2h-1v2h1v1zm6 10v-1h3v-2h-3v-21a3 3 0 0 1 3-3h26.971a1 1 0 0 1 .813.418l1.13 1.582h-28.914a1 1 0 0 0 -1 1v10a1 1 0 0 0 1 1h21v14h-6.08a6.991 6.991 0 0 0 -13.84 0h-3.08a1 1 0 0 1 -1-1zm11 7a5 5 0 1 1 5-5 5.006 5.006 0 0 1 -5 5zm28 0a5 5 0 1 1 5-5 5.006 5.006 0 0 1 -5 5zm10-6h-3.08a6.991 6.991 0 0 0 -13.84 0h-6.08v-14h23a1 1 0 0 1 1 1v1h-4a2 2 0 0 0 -2 2v2a2 2 0 0 0 2 2h4v2h-3v2h3v1a1 1 0 0 1 -1 1zm1-10v2h-4v-2z"/><path d="m38 31h4v2h-4z"/><path d="m20 43h2v2h-2z"/><path d="m48 43h2v2h-2z"/></g></svg>