<svg id="Layer_5" enable-background="new 0 0 64 64" height="512" viewBox="0 0 64 64" width="512" xmlns="http://www.w3.org/2000/svg">
  <path d="m11.983 42.598.148-.085c.929 1.242 1.968 2.412 3.124 3.487h3.092c-1.714-1.323-3.209-2.843-4.481-4.511 2.265-1.423 3.028-4.385 1.679-6.721l-.5-.866-.866.5c-1.417.818-2.265 2.229-2.447 3.738-.358-.682-.684-1.379-.974-2.093 2.563-.784 4.071-3.452 3.371-6.062l-.259-.966-.966.259c-1.579.423-2.762 1.564-3.329 2.972-.165-.746-.296-1.503-.39-2.269 2.674-.1 4.815-2.283 4.815-4.981v-1h-1c-1.628 0-3.061.79-3.974 1.995.032-.765.104-1.524.208-2.278 2.605.59 5.233-.964 5.93-3.567l.259-.966-.966-.259c-1.571-.421-3.157-.029-4.35.896.228-.727.494-1.44.789-2.141 2.363 1.241 5.301.421 6.648-1.912l.5-.866-.866-.5c-1.41-.814-3.046-.846-4.439-.259.407-.643.849-1.266 1.317-1.87 1.961 1.815 5.015 1.784 6.922-.122l.707-.707-.707-.707c-1.184-1.184-2.813-1.638-4.348-1.387l-.324-.35h.694c3.866 0 7-3.134 7-7h-1c-3.76 0-6.819 2.967-6.984 6.687l-.696-.75c-.007.006-.013.013-.019.019.231-1.518-.223-3.121-1.392-4.29l-.707-.707-.707.707c-1.953 1.953-1.953 5.118 0 7.071l.126.126c-.592.749-1.139 1.53-1.643 2.336-.167-1.531-1.021-2.967-2.457-3.796l-.866-.5-.5.866c-1.381 2.391-.561 5.449 1.83 6.83l.159.092c-.378.875-.705 1.771-.986 2.683-.556-1.438-1.755-2.606-3.358-3.035l-.966-.259-.259.966c-.715 2.667.868 5.409 3.536 6.124l.175.047c-.139.939-.225 1.887-.26 2.842-.911-1.243-2.369-2.059-4.026-2.059h-1v1c0 2.761 2.239 5 5 5h.175c.108.948.268 1.882.476 2.802-1.199-.956-2.811-1.362-4.405-.935l-.966.259.259.966c.715 2.667 3.456 4.25 6.124 3.536l.155-.042c.348.881.745 1.74 1.188 2.576-1.403-.608-3.061-.583-4.487.241l-.866.5.5.866c1.381 2.39 4.439 3.21 6.83 1.829z"/>
</svg>